<svg height="21" width="36" xmlns="http://www.w3.org/2000/svg"><g fill="none" fill-rule="evenodd"><rect fill="#1995d2" height="21" rx="3" width="35.7"/><path d="m0 9.904h1.714l.387-.909h.865l.386.91h3.374v-.695l.3.697h1.751l.303-.707v.704h8.383l-.004-1.491h.162c.114.004.147.014.147.197v1.294h4.337v-.347c.349.182.893.347 1.609.347h1.824l.39-.909h.865l.382.91h3.516v-.863l.531.862h2.818v-5.704h-2.79v.673l-.39-.673h-2.86v.673l-.36-.673h-3.864c-.647 0-1.215.088-1.673.333v-.333h-2.668v.333c-.292-.253-.69-.333-1.132-.333h-9.741l-.652 1.473-.673-1.473h-3.067v.673l-.338-.673h-2.617l-1.215 2.712zm33.144-.803h-1.422l-1.902-3.07v3.069h-2.044l-.39-.912h-2.085l-.378.912h-1.174c-.488 0-1.106-.106-1.455-.452-.353-.348-.537-.818-.537-1.562 0-.607.11-1.161.542-1.6.324-.326.831-.477 1.524-.477h.971v.877h-.95c-.368 0-.574.053-.773.242-.172.173-.289.498-.289.927 0 .438.09.754.276.96.154.163.436.212.7.212h.45l1.414-3.217h1.504l1.699 3.868v-3.867h1.528l1.763 2.849v-2.85h1.028v4.09zm-12.902 0h1.024v-4.09h-1.024v4.089zm-.582-2.989c0 .653-.447.99-.707 1.09.22.082.407.226.497.345.14.204.165.385.165.75v.804h-1.012l-.003-.516c0-.246.024-.6-.159-.796-.146-.144-.37-.176-.731-.176h-1.077v1.488h-1.004v-4.09h2.308c.513 0 .89.013 1.215.195.318.183.508.45.508.906zm-4.726 2.989h-3.352v-4.09h3.352v.851h-2.349v.738h2.292v.838h-2.292v.817h2.349zm-4.1 0h-1.028l-.006-3.204-1.453 3.204h-.881l-1.46-3.206v3.205h-2.04l-.386-.912h-2.089l-.39.912h-1.088l1.796-4.09h1.491l1.706 3.873v-3.873h1.638l1.313 2.776 1.206-2.776h1.67v4.091zm16.21-1.765-.695-1.63-.69 1.63zm-8.696-.65c-.138.082-.301.085-.496.085h-1.22v-.909h1.236c.175 0 .358.008.476.074.13.06.21.187.21.362 0 .179-.076.323-.206.389zm-15.13.65-.687-1.63-.683 1.63zm16.232 6.062c0 1.137-.87 1.372-1.748 1.372h-1.252v1.372h-1.95l-1.236-1.355-1.284 1.355h-3.974v-4.092h4.035l1.235 1.341 1.276-1.34h3.206c.797 0 1.692.215 1.692 1.347zm-7.978 1.891h-2.467v-.814h2.203v-.834h-2.203v-.744h2.516l1.097 1.192zm3.978.48-1.54-1.666 1.54-1.614zm2.296-1.83h-1.296v-1.042h1.308c.362 0 .614.144.614.501 0 .354-.24.54-.626.54zm6.77-1.889h3.35v.847h-2.35v.744h2.293v.834h-2.293v.814l2.35.004v.849h-3.35zm-1.267 2.19c.224.08.406.225.492.344.142.2.162.386.166.747v.81h-1.007v-.511c0-.246.024-.61-.163-.8-.146-.147-.37-.182-.736-.182h-1.071v1.494h-1.01v-4.092h2.316c.509 0 .878.023 1.208.194.316.186.515.441.515.908 0 .653-.447.986-.71 1.088zm-.606-.509c-.134.078-.3.085-.495.085h-1.22v-.919h1.237c.178 0 .357.003.478.074.13.066.209.193.209.367a.437.437 0 0 1 -.209.393zm9.055.253c.195.197.3.446.3.867 0 .88-.565 1.29-1.577 1.29h-1.954v-.876h1.947c.19 0 .325-.025.41-.102a.36.36 0 0 0 -.005-.537c-.076-.063-.182-.091-.357-.091-.938-.031-2.113.028-2.113-1.266 0-.594.383-1.219 1.435-1.219h2.01v.871h-1.84c-.182 0-.3.007-.402.075-.11.065-.15.164-.15.293 0 .155.093.26.22.305.105.036.218.047.39.047l.54.014c.544.013.918.105 1.146.33zm4.002 1.636c-.244.347-.719.523-1.361.523h-1.939v-.877h1.93c.19 0 .325-.025.406-.102a.356.356 0 0 0 .119-.267.334.334 0 0 0 -.123-.27c-.073-.063-.179-.091-.354-.091-.942-.031-2.117.028-2.117-1.266 0-.594.387-1.219 1.44-1.219h1.999v-.814h-1.857c-.56 0-.967.132-1.256.335v-.335h-2.747c-.439 0-.954.107-1.198.335v-.335h-4.905v.335c-.39-.274-1.05-.335-1.353-.335h-3.235v.335c-.31-.291-.996-.335-1.415-.335h-3.621l-.829.874-.776-.874h-5.408v5.709h5.306l.854-.887.804.887 3.272.003v-1.343h.322c.433.007.945-.01 1.397-.2v1.54h2.699v-1.488h.13c.166 0 .182.007.182.169v1.319h8.197c.52 0 1.065-.13 1.366-.365v.365h2.6c.541 0 1.069-.074 1.471-.263zm0-2.698h-1.828c-.183 0-.304.007-.406.075-.106.065-.147.164-.147.293 0 .155.09.26.219.305.106.036.22.047.387.047l.544.014c.549.013.915.105 1.138.33.04.03.065.065.093.1z" fill="#fff"/></g></svg>