<svg width="36" height="21" xmlns="http://www.w3.org/2000/svg"><g fill="none" fill-rule="evenodd"><rect fill="#3F6BB9" width="35.7" height="21" rx="3"/><path d="M8.4 10.325a5.6 5.6 0 1 0 11.2 0 5.6 5.6 0 0 0-11.2 0" fill="#ED1C2E"/><path d="M21.35 4.725c-1.435 0-2.743.54-3.734 1.428l.003.003c.343.307.647.657.905 1.04h-1.813c-.22.325-.408.674-.557 1.043h2.925c.134.333.236.682.303 1.043H15.85a5.6 5.6 0 0 0-.099 1.043h3.732c0 .357-.035.705-.1 1.043H15.85c.069.362.17.71.305 1.044h2.925a5.606 5.606 0 0 1-.555 1.043h-1.813c.26.383.564.733.908 1.04l-.004.003h.002a5.6 5.6 0 1 0 3.734-9.773" fill="#FCB331"/></g></svg>