<svg width="48" height="12" xmlns="http://www.w3.org/2000/svg"><g fill-rule="nonzero" fill="none"><path d="M17.888 2.613h-2.647a.368.368 0 0 0-.364.31l-1.07 6.788a.22.22 0 0 0 .218.255h1.264a.368.368 0 0 0 .363-.31l.289-1.832a.367.367 0 0 1 .363-.31h.838c1.744 0 2.75-.844 3.013-2.517.119-.731.005-1.306-.337-1.709-.376-.442-1.044-.675-1.93-.675zm.306 2.479c-.145.95-.871.95-1.573.95h-.4l.28-1.774a.22.22 0 0 1 .219-.186h.183c.478 0 .929 0 1.162.272.139.163.182.404.129.738zM25.802 5.061h-1.268a.22.22 0 0 0-.218.186l-.056.355-.089-.128c-.274-.399-.886-.532-1.497-.532-1.401 0-2.598 1.061-2.83 2.55-.122.742.05 1.452.472 1.947.386.455.939.645 1.596.645 1.13 0 1.755-.726 1.755-.726l-.056.352a.22.22 0 0 0 .217.256h1.142a.368.368 0 0 0 .364-.311l.685-4.339a.22.22 0 0 0-.217-.255zM24.034 7.53a1.413 1.413 0 0 1-1.43 1.21c-.368 0-.662-.118-.851-.342-.187-.222-.259-.538-.2-.89a1.419 1.419 0 0 1 1.422-1.22c.36 0 .652.12.845.345.193.228.27.546.214.897zM32.553 5.061H31.28a.37.37 0 0 0-.304.162L29.218 7.81l-.745-2.487a.369.369 0 0 0-.353-.263h-1.252a.22.22 0 0 0-.21.292l1.404 4.118-1.32 1.862a.22.22 0 0 0 .18.349h1.273c.12 0 .234-.059.302-.158l4.237-6.116a.22.22 0 0 0-.18-.347z" fill="#253B80"/><path d="M36.771 2.613h-2.648a.368.368 0 0 0-.363.31l-1.07 6.788a.22.22 0 0 0 .217.255h1.359a.257.257 0 0 0 .254-.217l.304-1.925a.367.367 0 0 1 .363-.31h.837c1.745 0 2.75-.844 3.014-2.517.119-.731.005-1.306-.338-1.709-.376-.442-1.043-.675-1.929-.675zm.306 2.479c-.145.95-.87.95-1.573.95h-.399l.28-1.774a.22.22 0 0 1 .218-.186h.183c.478 0 .93 0 1.162.272.14.163.182.404.129.738zM44.684 5.061h-1.267a.22.22 0 0 0-.217.186l-.057.355-.089-.128c-.274-.399-.886-.532-1.496-.532-1.401 0-2.597 1.061-2.83 2.55-.121.742.05 1.452.471 1.947.387.455.94.645 1.597.645 1.129 0 1.755-.726 1.755-.726l-.057.352a.22.22 0 0 0 .219.256h1.141c.181 0 .335-.132.363-.311l.686-4.339a.221.221 0 0 0-.219-.255zM42.917 7.53a1.412 1.412 0 0 1-1.43 1.21c-.368 0-.663-.118-.852-.342-.187-.222-.257-.538-.198-.89a1.42 1.42 0 0 1 1.42-1.22c.36 0 .653.12.846.345.194.228.27.546.214.897zM46.179 2.799L45.092 9.71a.22.22 0 0 0 .218.255h1.092a.367.367 0 0 0 .364-.31l1.071-6.789a.22.22 0 0 0-.218-.255h-1.223c-.108 0-.2.08-.217.187z" fill="#179BD7"/><path d="M2.813 11.285L3.015 10l-.45-.01H.41L1.907.5A.122.122 0 0 1 2.03.396h3.63c1.206 0 2.038.251 2.472.746a1.7 1.7 0 0 1 .396.742c.066.28.067.615.003 1.024l-.005.03v.261l.204.116c.172.09.308.195.412.314.174.199.287.451.335.75.049.308.033.674-.048 1.089A3.833 3.833 0 0 1 8.982 6.7a2.534 2.534 0 0 1-.706.774c-.27.191-.59.336-.952.43-.35.09-.75.137-1.189.137h-.282a.857.857 0 0 0-.553.203.855.855 0 0 0-.288.514l-.021.116-.358 2.266-.016.083c-.004.027-.012.04-.023.049a.06.06 0 0 1-.037.013H2.813z" fill="#253B80"/><path d="M8.922 2.968c-.011.07-.023.14-.037.213-.48 2.458-2.117 3.308-4.21 3.308H3.61a.517.517 0 0 0-.511.438l-.546 3.459-.154.98a.273.273 0 0 0 .269.315h1.89a.455.455 0 0 0 .448-.383l.019-.096.356-2.257.022-.124a.454.454 0 0 1 .45-.384h.282c1.83 0 3.264-.743 3.683-2.894.175-.899.084-1.649-.379-2.176a1.807 1.807 0 0 0-.517-.4z" fill="#179BD7"/><path d="M8.42 2.768a3.777 3.777 0 0 0-.465-.103 5.916 5.916 0 0 0-.939-.069H4.17a.452.452 0 0 0-.448.384l-.606 3.835-.017.112a.517.517 0 0 1 .511-.438h1.065c2.093 0 3.73-.85 4.21-3.308.014-.073.026-.144.037-.213a2.552 2.552 0 0 0-.501-.2z" fill="#222D65"/><path d="M3.722 2.98a.452.452 0 0 1 .448-.383h2.846c.337 0 .652.022.94.068a4.315 4.315 0 0 1 .465.104l.108.033c.14.047.272.102.393.166.143-.909-.001-1.527-.492-2.087C7.888.264 6.91 0 5.66 0H2.03a.519.519 0 0 0-.514.439L.004 10.025c-.03.19.116.36.308.36h2.241l.563-3.57.606-3.835z" fill="#253B80"/></g></svg>