<svg height="21" width="36" xmlns="http://www.w3.org/2000/svg"><g fill="none" fill-rule="evenodd"><rect fill="#fff" height="21" rx="3" width="36"/><rect height="20" rx="3" stroke="#e7e7e7" width="35" x=".5" y=".5"/><path d="m11.727 6.151-2.19 5.828-.26-1.255-.774-3.81s-.093-.763-1.09-.763h-3.62l-.043.144s1.108.22 2.404.968l1.996 7.36h2.394l3.656-8.471h-2.473zm15.544 5.476 1.208-3.171.68 3.171h-1.889zm2.529 2.997h2.11l-1.84-8.474h-1.847c-.853 0-1.061.631-1.061.631l-3.427 7.842h2.395l.48-1.258h2.92l.27 1.258zm-5.885-6.435.328-1.82s-1.013-.369-2.067-.369c-1.14 0-3.848.48-3.848 2.806 0 2.189 3.179 2.216 3.179 3.365 0 1.15-2.851.944-3.792.22l-.342 1.901s1.026.479 2.594.479c1.567 0 3.934-.78 3.934-2.9 0-2.203-3.207-2.409-3.207-3.367s2.238-.834 3.221-.314" fill="#0066b2"/><path d="m9.277 10.724-.774-3.81s-.093-.763-1.09-.763h-3.62l-.043.144s1.74.346 3.41 1.643c1.597 1.24 2.117 2.786 2.117 2.786" fill="#f9a533"/><path d="m15.096 6.151-1.436 8.473h2.297l1.437-8.473z" fill="#0066b2"/></g></svg>